# xmcd
#
# Track frame offsets:
#	180
#	18454
#	33516
#	43934
#	58804
#	74869
#	86930
#	102104
#	114690
#	125820
#	138086
#	150147
#	164001
#	174480
#	187420
#
# Disc length: 2644 seconds
#
# Revision: 3
# Processed by: cddbd v1.5.2PL0 Copyright (c) Steve Scherf et al.
# Submitted via: EasyCDDAExtractor 12.0.1.1
#
DISCID=e20a520f
DTITLE=Various Artist - Classic Country
DYEAR=1900
DGENRE=Country
TTITLE0=James Blundell and James Reyne  - Way Out West
TTITLE1=Juice Newton  - Queen Of The House
TTITLE2=Ferlin Husky  - Wings Of A Dove
TTITLE3=Cristy Lane  - One Day At A Time
TTITLE4=Billie Jo Spears  - Blanket On The Ground
TTITLE5=Glen Campbell - Galveston
TTITLE6=Jesse Coulter  - I'm Not Lisa
TTITLE7=Jean Shepard  - Think I'll Go Somewhere And Cry Myself To Sleep
TTITLE8=Bobby Darin  - You're The Reason I'm Living
TTITLE9=Jeanne Black  - He'll Have To Stay
TTITLE10=Del Reeves  - Girl On A Billboard
TTITLE11=Crystal Gayle  - River Road
TTITLE12=Slim Dusty  - Country Revival
TTITLE13=John Williamson  - Old Man Emu
TTITLE14=Chad Morgan  - The Sheik Of Scrubby Creek
EXTD=
EXTT0=
EXTT1=
EXTT2=
EXTT3=
EXTT4=
EXTT5=
EXTT6=
EXTT7=
EXTT8=
EXTT9=
EXTT10=
EXTT11=
EXTT12=
EXTT13=
EXTT14=
PLAYORDER=
